<svg width="1920" height="434" viewBox="0 0 1920 434" fill="none" xmlns="http://www.w3.org/2000/svg">
<rect x="-1" y="312" width="5" height="31" fill="#0FEDBE"/>
<line x1="1.5" y1="385" x2="1.5" y2="301" stroke="#0FEDBE"/>
<rect x="11.9897" y="304" width="5" height="17" fill="#0FEDBE"/>
<line x1="14.4897" y1="346" x2="14.4897" y2="301" stroke="#0FEDBE"/>
<rect x="24.9795" y="317" width="5" height="3" fill="#0FEDBE"/>
<line x1="27.4795" y1="343" x2="27.4795" y2="298" stroke="#0FEDBE"/>
<rect x="37.9697" y="321" width="5" height="9" fill="#F73C6B"/>
<line x1="40.4697" y1="334" x2="40.4697" y2="301" stroke="#F73C6B"/>
<rect x="50.9595" y="321" width="5" height="25" fill="#F73C6B"/>
<line x1="53.4595" y1="348" x2="53.4595" y2="301" stroke="#F73C6B"/>
<rect x="63.9492" y="338" width="5" height="9" fill="#F73C6B"/>
<line x1="66.4492" y1="351" x2="66.4492" y2="318" stroke="#F73C6B"/>
<rect x="76.939" y="302" width="5" height="57" fill="#0FEDBE"/>
<line x1="79.439" y1="362.045" x2="79.439" y2="351" stroke="#0FEDBE"/>
<rect x="89.9292" y="296" width="5" height="9" fill="#0FEDBE"/>
<line x1="92.4292" y1="338" x2="92.4292" y2="294" stroke="#0FEDBE"/>
<rect x="102.919" y="301" width="5" height="4" fill="#0FEDBE"/>
<line x1="105.419" y1="328" x2="105.419" y2="296" stroke="#0FEDBE"/>
<rect x="115.909" y="303" width="5" height="2" fill="#F73C6B"/>
<line x1="118.409" y1="314" x2="118.409" y2="294" stroke="#F73C6B"/>
<rect x="128.898" y="328" width="5" height="26" fill="#F73C6B"/>
<line x1="131.398" y1="354" x2="131.398" y2="324" stroke="#F73C6B"/>
<rect x="141.889" y="336" width="5" height="31" fill="#F73C6B"/>
<line x1="144.389" y1="378" x2="144.389" y2="327" stroke="#F73C6B"/>
<rect x="154.878" y="369" width="5" height="3" fill="#F73C6B"/>
<line x1="157.378" y1="410" x2="157.378" y2="365" stroke="#F73C6B"/>
<rect x="167.868" y="365" width="5" height="7" fill="#F73C6B"/>
<line x1="170.368" y1="394" x2="170.368" y2="365" stroke="#F73C6B"/>
<rect x="180.858" y="367" width="5" height="4" fill="#F73C6B"/>
<line x1="183.358" y1="378" x2="183.358" y2="364" stroke="#F73C6B"/>
<rect x="193.848" y="363" width="5" height="4" fill="#0FEDBE"/>
<line x1="196.348" y1="374" x2="196.348" y2="360" stroke="#0FEDBE"/>
<rect x="206.838" y="363" width="5" height="4" fill="#F73C6B"/>
<line x1="209.338" y1="373" x2="209.338" y2="344" stroke="#F73C6B"/>
<rect x="219.828" y="340" width="5" height="35" fill="#0FEDBE"/>
<line x1="222.328" y1="416" x2="222.328" y2="334" stroke="#0FEDBE"/>
<rect x="232.817" y="337" width="5" height="9" fill="#0FEDBE"/>
<line x1="235.317" y1="350" x2="235.317" y2="317" stroke="#0FEDBE"/>
<rect x="245.808" y="337" width="5" height="9" fill="#F73C6B"/>
<line x1="248.308" y1="350" x2="248.308" y2="330" stroke="#F73C6B"/>
<rect x="258.797" y="338" width="5" height="3" fill="#F73C6B"/>
<line x1="261.297" y1="360" x2="261.297" y2="334" stroke="#F73C6B"/>
<rect x="271.787" y="337" width="5" height="26" fill="#F73C6B"/>
<line x1="274.287" y1="350" x2="274.287" y2="317" stroke="#F73C6B"/>
<rect x="284.777" y="337" width="5" height="57" fill="#F73C6B"/>
<line x1="287.277" y1="350" x2="287.277" y2="317" stroke="#F73C6B"/>
<rect x="297.767" y="392" width="5" height="4" fill="#F73C6B"/>
<line x1="300.267" y1="403" x2="300.267" y2="388" stroke="#F73C6B"/>
<rect x="310.757" y="388" width="5" height="6" fill="#F73C6B"/>
<line x1="313.257" y1="401" x2="313.257" y2="386" stroke="#F73C6B"/>
<rect x="323.747" y="387" width="5" height="4" fill="#F73C6B"/>
<line x1="326.247" y1="396" x2="326.247" y2="368" stroke="#F73C6B"/>
<rect x="336.736" y="383" width="5" height="26" fill="#F73C6B"/>
<line x1="339.236" y1="409" x2="339.236" y2="379" stroke="#F73C6B"/>
<rect x="349.727" y="376" width="5" height="31" fill="#0FEDBE"/>
<line x1="352.227" y1="418" x2="352.227" y2="368" stroke="#0FEDBE"/>
<rect x="362.716" y="372" width="5" height="6" fill="#0FEDBE"/>
<line x1="365.216" y1="385" x2="365.216" y2="371" stroke="#0FEDBE"/>
<rect x="375.706" y="352" width="5" height="31" fill="#0FEDBE"/>
<line x1="378.206" y1="387" x2="378.206" y2="333" stroke="#0FEDBE"/>
<rect x="388.696" y="345" width="5" height="9" fill="#F73C6B"/>
<line x1="391.196" y1="358" x2="391.196" y2="338" stroke="#F73C6B"/>
<rect width="5" height="6" transform="matrix(1 0 0 -1 401.686 349)" fill="#0FEDBE"/>
<line y1="-0.5" x2="9" y2="-0.5" transform="matrix(4.37115e-08 1 1 -4.37115e-08 404.686 336)" stroke="#0FEDBE"/>
<rect x="414.676" y="337" width="5" height="9" fill="#0FEDBE"/>
<line x1="417.176" y1="350" x2="417.176" y2="317" stroke="#0FEDBE"/>
<rect x="427.666" y="337" width="5" height="3" fill="#F73C6B"/>
<line x1="430.166" y1="378" x2="430.166" y2="333" stroke="#F73C6B"/>
<rect x="440.655" y="339" width="5" height="4" fill="#F73C6B"/>
<line x1="443.155" y1="350" x2="443.155" y2="336" stroke="#F73C6B"/>
<rect width="5" height="6" transform="matrix(1 0 0 -1 453.646 349)" fill="#0FEDBE"/>
<line x1="456.146" y1="351" x2="456.146" y2="336" stroke="#0FEDBE"/>
<rect x="466.635" y="326" width="5" height="33" fill="#0FEDBE"/>
<line x1="469.135" y1="362.045" x2="469.135" y2="351" stroke="#0FEDBE"/>
<rect x="479.625" y="326" width="5" height="8" fill="#0FEDBE"/>
<line x1="482.125" y1="362" x2="482.125" y2="333" stroke="#0FEDBE"/>
<rect x="492.615" y="324" width="5" height="9" fill="#0FEDBE"/>
<line x1="495.115" y1="337" x2="495.115" y2="304" stroke="#0FEDBE"/>
<rect x="505.605" y="317" width="5" height="3" fill="#0FEDBE"/>
<line x1="508.105" y1="343" x2="508.105" y2="298" stroke="#0FEDBE"/>
<rect x="518.595" y="264" width="5" height="31" fill="#0FEDBE"/>
<line x1="521.095" y1="264.045" x2="521.095" y2="253" stroke="#0FEDBE"/>
<line x1="521.095" y1="348" x2="521.095" y2="295" stroke="#0FEDBE"/>
<rect x="531.584" y="248" width="5" height="31" fill="#0FEDBE"/>
<line x1="534.084" y1="287" x2="534.084" y2="237" stroke="#0FEDBE"/>
<rect x="544.574" y="244" width="5" height="9" fill="#0FEDBE"/>
<line x1="547.074" y1="257" x2="547.074" y2="224" stroke="#0FEDBE"/>
<rect x="557.564" y="244" width="5" height="4" fill="#0FEDBE"/>
<line x1="560.064" y1="257" x2="560.064" y2="224" stroke="#0FEDBE"/>
<rect x="570.554" y="245" width="5" height="3" fill="#F73C6B"/>
<line x1="573.054" y1="267" x2="573.054" y2="241" stroke="#F73C6B"/>
<rect x="583.544" y="246" width="5" height="4" fill="#F73C6B"/>
<line x1="586.044" y1="257" x2="586.044" y2="244" stroke="#F73C6B"/>
<rect x="596.534" y="297" width="5" height="26" fill="#F73C6B"/>
<line x1="599.034" y1="310" x2="599.034" y2="277" stroke="#F73C6B"/>
<rect x="609.524" y="308" width="5" height="9" fill="#0FEDBE"/>
<line x1="612.024" y1="337" x2="612.024" y2="304" stroke="#0FEDBE"/>
<rect x="622.514" y="305" width="5" height="3" fill="#0FEDBE"/>
<line x1="625.014" y1="331" x2="625.014" y2="286" stroke="#0FEDBE"/>
<rect x="635.503" y="277" width="5" height="42" fill="#F73C6B"/>
<line x1="638.003" y1="288.045" x2="638.003" y2="277" stroke="#F73C6B"/>
<line x1="638.003" y1="330.045" x2="638.003" y2="319" stroke="#F73C6B"/>
<rect x="648.493" y="304" width="5" height="14" fill="#F73C6B"/>
<line x1="650.993" y1="329" x2="650.993" y2="296" stroke="#F73C6B"/>
<rect x="661.483" y="312" width="5" height="31" fill="#F73C6B"/>
<line x1="663.983" y1="354" x2="663.983" y2="305" stroke="#F73C6B"/>
<rect x="674.473" y="326" width="5" height="8" fill="#F73C6B"/>
<line x1="676.973" y1="362" x2="676.973" y2="333" stroke="#F73C6B"/>
<rect x="687.463" y="345" width="5" height="9" fill="#F73C6B"/>
<line x1="689.963" y1="358" x2="689.963" y2="338" stroke="#F73C6B"/>
<rect x="700.453" y="326" width="5" height="33" fill="#0FEDBE"/>
<line x1="702.953" y1="377" x2="702.953" y2="351" stroke="#0FEDBE"/>
<rect x="713.443" y="297" width="5" height="62" fill="#0FEDBE"/>
<line x1="715.943" y1="362" x2="715.943" y2="351" stroke="#0FEDBE"/>
<rect x="726.433" y="281" width="5" height="26" fill="#F73C6B"/>
<line x1="728.933" y1="294" x2="728.933" y2="261" stroke="#F73C6B"/>
<rect x="739.422" y="262" width="5" height="31" fill="#0FEDBE"/>
<line x1="741.922" y1="304" x2="741.922" y2="254" stroke="#0FEDBE"/>
<rect x="752.412" y="261" width="5" height="31" fill="#0FEDBE"/>
<line x1="754.912" y1="345" x2="754.912" y2="252" stroke="#0FEDBE"/>
<rect x="765.402" y="260" width="5" height="9" fill="#0FEDBE"/>
<line x1="767.902" y1="273" x2="767.902" y2="240" stroke="#0FEDBE"/>
<rect x="778.392" y="213" width="5" height="42" fill="#0FEDBE"/>
<line x1="780.892" y1="224.045" x2="780.892" y2="213" stroke="#0FEDBE"/>
<line x1="780.892" y1="266.045" x2="780.892" y2="255" stroke="#0FEDBE"/>
<rect x="791.382" y="205" width="5" height="11" fill="#0FEDBE"/>
<line x1="793.882" y1="239" x2="793.882" y2="194" stroke="#0FEDBE"/>
<rect x="804.372" y="201" width="5" height="9" fill="#F73C6B"/>
<line x1="806.872" y1="214" x2="806.872" y2="194" stroke="#F73C6B"/>
<rect x="817.362" y="201" width="5" height="26" fill="#F73C6B"/>
<line x1="819.862" y1="214" x2="819.862" y2="181" stroke="#F73C6B"/>
<rect x="830.352" y="202" width="5" height="3" fill="#F73C6B"/>
<line x1="832.852" y1="224" x2="832.852" y2="198" stroke="#F73C6B"/>
<rect x="843.341" y="200" width="5" height="9" fill="#0FEDBE"/>
<line x1="845.841" y1="213" x2="845.841" y2="180" stroke="#0FEDBE"/>
<rect x="856.331" y="206" width="5" height="26" fill="#F73C6B"/>
<line x1="858.831" y1="219" x2="858.831" y2="186" stroke="#F73C6B"/>
<rect x="869.321" y="206" width="5" height="40" fill="#F73C6B"/>
<line x1="871.821" y1="219" x2="871.821" y2="186" stroke="#F73C6B"/>
<rect x="882.311" y="246" width="5" height="4" fill="#F73C6B"/>
<line x1="884.811" y1="257" x2="884.811" y2="244" stroke="#F73C6B"/>
<rect x="895.301" y="245" width="5" height="11" fill="#0FEDBE"/>
<line x1="897.801" y1="279" x2="897.801" y2="234" stroke="#0FEDBE"/>
<rect x="908.291" y="277" width="5" height="42" fill="#F73C6B"/>
<line x1="910.791" y1="288.045" x2="910.791" y2="277" stroke="#F73C6B"/>
<line x1="910.791" y1="330.045" x2="910.791" y2="319" stroke="#F73C6B"/>
<rect x="921.281" y="304" width="5" height="14" fill="#F73C6B"/>
<line x1="923.781" y1="329" x2="923.781" y2="296" stroke="#F73C6B"/>
<rect x="934.271" y="312" width="5" height="31" fill="#F73C6B"/>
<line x1="936.771" y1="354" x2="936.771" y2="305" stroke="#F73C6B"/>
<rect x="947.26" y="326" width="5" height="8" fill="#F73C6B"/>
<line x1="949.76" y1="362" x2="949.76" y2="333" stroke="#F73C6B"/>
<rect x="960.25" y="345" width="5" height="9" fill="#F73C6B"/>
<line x1="962.75" y1="358" x2="962.75" y2="338" stroke="#F73C6B"/>
<rect x="973.24" y="345" width="5" height="9" fill="#0FEDBE"/>
<line x1="975.74" y1="354" x2="975.74" y2="338" stroke="#0FEDBE"/>
<rect x="986.23" y="337" width="5" height="13" fill="#0FEDBE"/>
<line x1="988.73" y1="350" x2="988.73" y2="334" stroke="#0FEDBE"/>
<rect x="999.22" y="338" width="5" height="3" fill="#F73C6B"/>
<line x1="1001.72" y1="351" x2="1001.72" y2="331" stroke="#F73C6B"/>
<rect x="1012.21" y="336" width="5" height="12" fill="#0FEDBE"/>
<line x1="1014.71" y1="354" x2="1014.71" y2="298" stroke="#0FEDBE"/>
<rect x="1025.2" y="346" width="5" height="3" fill="#0FEDBE"/>
<line x1="1027.7" y1="350" x2="1027.7" y2="286" stroke="#0FEDBE"/>
<rect x="1038.19" y="261" width="5" height="31" fill="#0FEDBE"/>
<line x1="1040.69" y1="345" x2="1040.69" y2="252" stroke="#0FEDBE"/>
<rect x="1051.18" y="256" width="5" height="14" fill="#F73C6B"/>
<line x1="1053.68" y1="281" x2="1053.68" y2="248" stroke="#F73C6B"/>
<rect x="1064.17" y="262" width="5" height="40" fill="#F73C6B"/>
<line x1="1066.67" y1="275" x2="1066.67" y2="242" stroke="#F73C6B"/>
<rect x="1077.16" y="302" width="5" height="4" fill="#F73C6B"/>
<line x1="1079.66" y1="313" x2="1079.66" y2="300" stroke="#F73C6B"/>
<rect x="1090.15" y="306" width="5" height="3" fill="#0FEDBE"/>
<line x1="1092.65" y1="310" x2="1092.65" y2="246" stroke="#0FEDBE"/>
<rect x="1103.14" y="273" width="5" height="62" fill="#0FEDBE"/>
<line x1="1105.64" y1="338" x2="1105.64" y2="327" stroke="#0FEDBE"/>
<rect x="1116.13" y="273" width="5" height="13" fill="#0FEDBE"/>
<line x1="1118.63" y1="338" x2="1118.63" y2="280" stroke="#0FEDBE"/>
<rect x="1129.12" y="262" width="5" height="31" fill="#F73C6B"/>
<line x1="1131.62" y1="304" x2="1131.62" y2="254" stroke="#F73C6B"/>
<rect x="1142.11" y="292" width="5" height="3" fill="#F73C6B"/>
<line x1="1144.61" y1="305" x2="1144.61" y2="285" stroke="#F73C6B"/>
<rect x="1155.1" y="293" width="5" height="51" fill="#F73C6B"/>
<line x1="1157.6" y1="304.045" x2="1157.6" y2="293" stroke="#F73C6B"/>
<line x1="1157.6" y1="346.045" x2="1157.6" y2="335" stroke="#F73C6B"/>
<rect x="1168.09" y="321" width="5" height="26" fill="#F73C6B"/>
<line x1="1170.59" y1="334" x2="1170.59" y2="301" stroke="#F73C6B"/>
<rect x="1181.08" y="325" width="5" height="42" fill="#F73C6B"/>
<line x1="1183.58" y1="336.045" x2="1183.58" y2="325" stroke="#F73C6B"/>
<line x1="1183.58" y1="378.045" x2="1183.58" y2="367" stroke="#F73C6B"/>
<rect x="1194.07" y="352" width="5" height="14" fill="#F73C6B"/>
<line x1="1196.57" y1="377" x2="1196.57" y2="344" stroke="#F73C6B"/>
<rect x="1207.06" y="360" width="5" height="31" fill="#F73C6B"/>
<line x1="1209.56" y1="402" x2="1209.56" y2="353" stroke="#F73C6B"/>
<rect x="1220.05" y="374" width="5" height="8" fill="#F73C6B"/>
<line x1="1222.55" y1="410" x2="1222.55" y2="381" stroke="#F73C6B"/>
<rect x="1233.04" y="393" width="5" height="9" fill="#F73C6B"/>
<line x1="1235.54" y1="406" x2="1235.54" y2="386" stroke="#F73C6B"/>
<rect x="1246.03" y="393" width="5" height="9" fill="#0FEDBE"/>
<line x1="1248.53" y1="402" x2="1248.53" y2="386" stroke="#0FEDBE"/>
<rect x="1259.02" y="385" width="5" height="13" fill="#0FEDBE"/>
<line x1="1261.52" y1="398" x2="1261.52" y2="382" stroke="#0FEDBE"/>
<rect x="1272.01" y="386" width="5" height="3" fill="#F73C6B"/>
<line x1="1274.51" y1="399" x2="1274.51" y2="379" stroke="#F73C6B"/>
<rect x="1285" y="393" width="5" height="9" fill="#0FEDBE"/>
<line x1="1287.5" y1="421" x2="1287.5" y2="386" stroke="#0FEDBE"/>
<rect x="1297.99" y="385" width="5" height="13" fill="#0FEDBE"/>
<line x1="1300.49" y1="398" x2="1300.49" y2="369" stroke="#0FEDBE"/>
<rect x="1310.98" y="393" width="5" height="9" fill="#F73C6B"/>
<line x1="1313.48" y1="406" x2="1313.48" y2="386" stroke="#F73C6B"/>
<rect width="5" height="6" transform="matrix(1 0 0 -1 1323.97 397)" fill="#F73C6B"/>
<line y1="-0.5" x2="9" y2="-0.5" transform="matrix(4.37115e-08 1 1 -4.37115e-08 1326.97 384)" stroke="#F73C6B"/>
<rect x="1336.96" y="385" width="5" height="9" fill="#F73C6B"/>
<line x1="1339.46" y1="398" x2="1339.46" y2="365" stroke="#F73C6B"/>
<rect x="1349.95" y="385" width="5" height="3" fill="#F73C6B"/>
<line x1="1352.45" y1="426" x2="1352.45" y2="381" stroke="#F73C6B"/>
<rect x="1362.94" y="387" width="5" height="4" fill="#F73C6B"/>
<line x1="1365.44" y1="398" x2="1365.44" y2="384" stroke="#F73C6B"/>
<rect width="5" height="6" transform="matrix(1 0 0 -1 1375.93 397)" fill="#0FEDBE"/>
<line x1="1378.43" y1="399" x2="1378.43" y2="384" stroke="#0FEDBE"/>
<rect x="1388.92" y="374" width="5" height="33" fill="#F73C6B"/>
<line x1="1391.42" y1="410.045" x2="1391.42" y2="399" stroke="#F73C6B"/>
<rect x="1401.91" y="374" width="5" height="8" fill="#0FEDBE"/>
<line x1="1404.41" y1="410" x2="1404.41" y2="381" stroke="#0FEDBE"/>
<rect x="1414.9" y="372" width="5" height="9" fill="#0FEDBE"/>
<line x1="1417.4" y1="385" x2="1417.4" y2="352" stroke="#0FEDBE"/>
<rect x="1427.89" y="249" width="5" height="62" fill="#0FEDBE"/>
<line x1="1430.39" y1="314" x2="1430.39" y2="303" stroke="#0FEDBE"/>
<rect x="1440.88" y="227" width="5" height="34" fill="#0FEDBE"/>
<line x1="1443.38" y1="266" x2="1443.38" y2="255" stroke="#0FEDBE"/>
<rect x="1453.87" y="254" width="5" height="31" fill="#0FEDBE"/>
<line x1="1456.37" y1="286" x2="1456.37" y2="222" stroke="#0FEDBE"/>
<rect x="1466.85" y="287" width="5" height="6" fill="#F73C6B"/>
<line x1="1469.35" y1="302" x2="1469.35" y2="238" stroke="#F73C6B"/>
<rect x="1479.84" y="272" width="5" height="31" fill="#F73C6B"/>
<line x1="1482.34" y1="314" x2="1482.34" y2="265" stroke="#F73C6B"/>
<rect width="5" height="6" transform="matrix(1 0 0 -1 1492.83 292)" fill="#0FEDBE"/>
<line y1="-0.5" x2="64" y2="-0.5" transform="matrix(-5.46393e-08 1 1 5.46393e-08 1495.83 277)" stroke="#0FEDBE"/>
<rect x="1505.82" y="292" width="5" height="3" fill="#F73C6B"/>
<line x1="1508.32" y1="305" x2="1508.32" y2="285" stroke="#F73C6B"/>
<rect x="1518.81" y="279" width="5" height="16" fill="#F73C6B"/>
<line x1="1521.31" y1="305" x2="1521.31" y2="274" stroke="#F73C6B"/>
<rect x="1531.8" y="227" width="5" height="34" fill="#0FEDBE"/>
<line x1="1534.3" y1="311" x2="1534.3" y2="255" stroke="#0FEDBE"/>
<rect x="1544.79" y="203" width="5" height="34" fill="#0FEDBE"/>
<line x1="1547.29" y1="253" x2="1547.29" y2="195" stroke="#0FEDBE"/>
<rect x="1557.78" y="204" width="5" height="9" fill="#0FEDBE"/>
<line x1="1560.28" y1="217" x2="1560.28" y2="184" stroke="#0FEDBE"/>
<rect x="1570.77" y="157" width="5" height="42" fill="#0FEDBE"/>
<line x1="1573.27" y1="168.045" x2="1573.27" y2="157" stroke="#0FEDBE"/>
<line x1="1573.27" y1="210.045" x2="1573.27" y2="199" stroke="#0FEDBE"/>
<rect x="1583.76" y="149" width="5" height="11" fill="#0FEDBE"/>
<line x1="1586.26" y1="183" x2="1586.26" y2="138" stroke="#0FEDBE"/>
<rect x="1596.75" y="145" width="5" height="9" fill="#F73C6B"/>
<line x1="1599.25" y1="158" x2="1599.25" y2="138" stroke="#F73C6B"/>
<rect x="1609.74" y="137" width="5" height="26" fill="#F73C6B"/>
<line x1="1612.24" y1="150" x2="1612.24" y2="117" stroke="#F73C6B"/>
<rect x="1622.73" y="134" width="5" height="8" fill="#F73C6B"/>
<line x1="1625.23" y1="170" x2="1625.23" y2="141" stroke="#F73C6B"/>
<rect x="1635.72" y="145" width="5" height="9" fill="#0FEDBE"/>
<line x1="1638.22" y1="193" x2="1638.22" y2="99" stroke="#0FEDBE"/>
<rect x="1648.71" y="133" width="5" height="42" fill="#0FEDBE"/>
<line x1="1651.21" y1="144.045" x2="1651.21" y2="133" stroke="#0FEDBE"/>
<line x1="1651.21" y1="186.045" x2="1651.21" y2="175" stroke="#0FEDBE"/>
<rect x="1661.7" y="132" width="5" height="9" fill="#0FEDBE"/>
<line x1="1664.2" y1="145" x2="1664.2" y2="112" stroke="#0FEDBE"/>
<rect x="1674.69" y="137" width="5" height="26" fill="#F73C6B"/>
<line x1="1677.19" y1="170" x2="1677.19" y2="117" stroke="#F73C6B"/>
<rect x="1687.68" y="118" width="5" height="31" fill="#0FEDBE"/>
<line x1="1690.18" y1="160" x2="1690.18" y2="110" stroke="#0FEDBE"/>
<rect x="1700.67" y="117" width="5" height="31" fill="#0FEDBE"/>
<line x1="1703.17" y1="201" x2="1703.17" y2="108" stroke="#0FEDBE"/>
<rect x="1713.66" y="116" width="5" height="9" fill="#0FEDBE"/>
<line x1="1716.16" y1="129" x2="1716.16" y2="96" stroke="#0FEDBE"/>
<rect x="1726.65" y="69" width="5" height="42" fill="#0FEDBE"/>
<line x1="1729.15" y1="80.0454" x2="1729.15" y2="69" stroke="#0FEDBE"/>
<line x1="1729.15" y1="122.045" x2="1729.15" y2="111" stroke="#0FEDBE"/>
<rect x="1739.64" y="64" width="5" height="63" fill="#F73C6B"/>
<line x1="1742.14" y1="75.0454" x2="1742.14" y2="64" stroke="#F73C6B"/>
<line x1="1742.14" y1="67" x2="1742.14" y2="55.9546" stroke="#F73C6B"/>
<rect x="1752.63" y="137" width="5" height="26" fill="#F73C6B"/>
<line x1="1755.13" y1="150" x2="1755.13" y2="117" stroke="#F73C6B"/>
<rect x="1765.62" y="150" width="5" height="8" fill="#F73C6B"/>
<line x1="1768.12" y1="186" x2="1768.12" y2="157" stroke="#F73C6B"/>
<rect x="1778.61" y="153" width="5" height="26" fill="#F73C6B"/>
<line x1="1781.11" y1="186" x2="1781.11" y2="133" stroke="#F73C6B"/>
<rect width="5" height="26" transform="matrix(1 0 0 -1 1791.6 194)" fill="#F73C6B"/>
<line y1="-0.5" x2="33" y2="-0.5" transform="matrix(-4.37113e-08 1 1 4.37113e-08 1794.6 181)" stroke="#F73C6B"/>
<rect x="1804.59" y="145" width="5" height="9" fill="#0FEDBE"/>
<line x1="1807.09" y1="193" x2="1807.09" y2="99" stroke="#0FEDBE"/>
<rect x="1817.58" y="132" width="5" height="9" fill="#0FEDBE"/>
<line x1="1820.08" y1="145" x2="1820.08" y2="112" stroke="#0FEDBE"/>
<rect x="1830.57" y="128" width="5" height="26" fill="#F73C6B"/>
<line x1="1833.07" y1="139.045" x2="1833.07" y2="128" stroke="#F73C6B"/>
<line x1="1833.07" y1="131" x2="1833.07" y2="119.955" stroke="#F73C6B"/>
<rect x="1843.56" y="121" width="5" height="13" fill="#0FEDBE"/>
<line x1="1846.06" y1="134" x2="1846.06" y2="105" stroke="#0FEDBE"/>
<rect x="1856.55" y="129" width="5" height="9" fill="#F73C6B"/>
<line x1="1859.05" y1="142" x2="1859.05" y2="122" stroke="#F73C6B"/>
<rect width="5" height="6" transform="matrix(1 0 0 -1 1869.54 133)" fill="#F73C6B"/>
<line y1="-0.5" x2="9" y2="-0.5" transform="matrix(4.37115e-08 1 1 -4.37115e-08 1872.54 120)" stroke="#F73C6B"/>
<rect x="1882.53" y="123" width="5" height="4" fill="#F73C6B"/>
<line x1="1885.03" y1="134" x2="1885.03" y2="120" stroke="#F73C6B"/>
<rect width="5" height="6" transform="matrix(1 0 0 -1 1895.52 133)" fill="#0FEDBE"/>
<line x1="1898.02" y1="135" x2="1898.02" y2="120" stroke="#0FEDBE"/>
<rect x="1909.01" y="96.6543" width="5" height="21" fill="#0FEDBE"/>
<line x1="1911.01" y1="146" x2="1911.01" y2="117" stroke="#0FEDBE"/>
</svg>
